<svg width="40" height="40" viewBox="0 0 40 40" fill="none" xmlns="http://www.w3.org/2000/svg">
<rect width="40" height="40" rx="8" fill="#21242C"/>
<path d="M26.9225 13.7466C25.6558 13.1655 24.2844 12.7437 22.8557 12.5C22.8306 12.5004 22.8067 12.5105 22.7891 12.5281C22.6176 12.8374 22.4176 13.2404 22.2843 13.5497C20.769 13.3249 19.228 13.3249 17.7127 13.5497C17.5794 13.2311 17.3794 12.8374 17.1984 12.5281C17.1889 12.5094 17.1604 12.5 17.1318 12.5C15.7032 12.7437 14.3412 13.1655 13.065 13.7466C13.0555 13.7466 13.046 13.7559 13.0364 13.7653C10.4459 17.5799 9.73158 21.2915 10.084 24.9655C10.084 24.9843 10.0935 25.003 10.1125 25.0124C11.8269 26.2496 13.4745 26.9994 15.1032 27.4961C15.1317 27.5055 15.1603 27.4961 15.1698 27.4774C15.5508 26.9619 15.8937 26.4183 16.1889 25.8465C16.2079 25.8091 16.1889 25.7716 16.1508 25.7622C15.6079 25.556 15.0936 25.3123 14.5889 25.0311C14.5508 25.0124 14.5508 24.9562 14.5793 24.928C14.6841 24.8531 14.7889 24.7687 14.8936 24.6937C14.9127 24.675 14.9412 24.675 14.9603 24.6843C18.2366 26.1558 21.77 26.1558 25.0082 24.6843C25.0272 24.675 25.0558 24.675 25.0749 24.6937C25.1796 24.7781 25.2844 24.8531 25.3891 24.9374C25.4272 24.9655 25.4272 25.0218 25.3796 25.0405C24.8844 25.3311 24.3606 25.5654 23.8177 25.7716C23.7796 25.7809 23.7701 25.8278 23.7796 25.8559C24.0844 26.4276 24.4272 26.9713 24.7987 27.4867C24.8272 27.4961 24.8558 27.5055 24.8844 27.4961C26.5225 26.9994 28.1702 26.2496 29.8845 25.0124C29.9036 25.003 29.9131 24.9843 29.9131 24.9655C30.3321 20.7197 29.2178 17.0363 26.9606 13.7653C26.9511 13.7559 26.9416 13.7466 26.9225 13.7466ZM16.6841 22.7255C15.7032 22.7255 14.8841 21.8351 14.8841 20.7385C14.8841 19.6419 15.6841 18.7515 16.6841 18.7515C17.6937 18.7515 18.4937 19.6513 18.4842 20.7385C18.4842 21.8351 17.6842 22.7255 16.6841 22.7255ZM23.3224 22.7255C22.3414 22.7255 21.5224 21.8351 21.5224 20.7385C21.5224 19.6419 22.3224 18.7515 23.3224 18.7515C24.332 18.7515 25.132 19.6513 25.1225 20.7385C25.1225 21.8351 24.332 22.7255 23.3224 22.7255Z" fill="#989EA9"/>
</svg>
