<svg width="137" height="32" viewBox="0 0 137 32" fill="none" xmlns="http://www.w3.org/2000/svg">
<g clip-path="url(#clip0_477_7093)">
<path d="M11.608 16.3484L0 19.4923V31.4392H136.241V0L133.261 1.15029C128.769 2.88366 123.997 3.7727 119.183 3.7727H116.571C109.903 3.7727 103.411 5.91104 98.0481 9.87361C88.5127 16.9194 75.8057 17.9452 65.2636 12.5202L60.3143 9.97334C57.1896 8.36538 53.8246 7.27529 50.3506 6.74559C43.0677 5.63515 35.6237 7.03415 29.2409 10.7129L28.641 11.0586C25.4522 12.8965 21.9895 14.2114 18.3846 14.9535L11.608 16.3484Z" fill="url(#paint0_linear_477_7093)"/>
<path d="M0 19.4923L11.608 16.3484L18.3846 14.9535C21.9895 14.2114 25.4522 12.8965 28.641 11.0586L29.2409 10.7129C35.6237 7.03415 43.0677 5.63515 50.3506 6.74559C53.8246 7.27529 57.1896 8.36538 60.3143 9.97334L65.2636 12.5202C75.8057 17.9452 88.5127 16.9194 98.0481 9.87361C103.411 5.91104 109.903 3.7727 116.571 3.7727H119.183C123.997 3.7727 128.769 2.88366 133.261 1.15029L136.241 0" stroke="#64D77B" stroke-width="2.4792" stroke-linecap="round" stroke-linejoin="round"/>
</g>
<defs>
<linearGradient id="paint0_linear_477_7093" x1="68.1206" y1="8.17418" x2="68.1206" y2="31.4392" gradientUnits="userSpaceOnUse">
<stop stop-color="#174F2F" stop-opacity="0.6"/>
<stop offset="1" stop-color="#143228" stop-opacity="0"/>
</linearGradient>
<clipPath id="clip0_477_7093">
<rect width="136.241" height="31.4392" fill="white"/>
</clipPath>
</defs>
</svg>
