<svg width="479" height="438" viewBox="0 0 479 438" fill="none" xmlns="http://www.w3.org/2000/svg">
<g filter="url(#filter0_d_477_7104)">
<path d="M157.574 321.408C153.189 325.793 146.036 325.822 142.055 321.067C128.407 304.766 119.027 285.251 114.856 264.282C109.953 239.632 112.469 214.081 122.087 190.861C131.705 167.64 147.993 147.794 168.891 133.83C189.789 119.867 214.358 112.414 239.491 112.414C264.625 112.414 289.194 119.867 310.091 133.83C330.989 147.794 347.277 167.64 356.895 190.861C366.513 214.081 369.03 239.632 364.126 264.282C359.955 285.251 350.575 304.766 336.928 321.067C332.946 325.822 325.793 325.793 321.408 321.408V321.408C317.023 317.022 317.077 309.946 320.967 305.117C331.521 292.013 338.796 276.511 342.099 259.901C346.136 239.607 344.064 218.572 336.146 199.455C328.228 180.339 314.818 163.999 297.614 152.504C280.41 141.008 260.183 134.872 239.491 134.872C218.799 134.872 198.573 141.008 181.368 152.504C164.164 163.999 150.754 180.339 142.836 199.455C134.918 218.572 132.846 239.607 136.883 259.901C140.187 276.511 147.461 292.013 158.015 305.117C161.905 309.946 161.96 317.022 157.574 321.408V321.408Z" fill="#1E3948"/>
</g>
<path d="M157.574 321.408C153.189 325.793 146.036 325.822 142.054 321.067C127.271 303.41 117.516 282.005 113.938 259.114C109.781 232.512 114.18 205.277 126.501 181.337C138.823 157.397 158.43 137.99 182.494 125.913C203.202 115.521 226.29 111.02 249.251 112.789C255.434 113.266 259.568 119.104 258.548 125.221V125.221C257.528 131.339 251.737 135.407 245.546 135.048C227.298 133.99 209.02 137.729 192.567 145.986C172.756 155.928 156.614 171.906 146.47 191.615C136.326 211.324 132.705 233.745 136.127 255.646C138.97 273.834 146.549 290.882 158.015 305.116C161.905 309.946 161.96 317.022 157.574 321.408V321.408Z" fill="url(#paint0_linear_477_7104)"/>
<defs>
<filter id="filter0_d_477_7104" x="1.52588e-05" y="-0.000106812" width="478.982" height="437.08" filterUnits="userSpaceOnUse" color-interpolation-filters="sRGB">
<feFlood flood-opacity="0" result="BackgroundImageFix"/>
<feColorMatrix in="SourceAlpha" type="matrix" values="0 0 0 0 0 0 0 0 0 0 0 0 0 0 0 0 0 0 127 0" result="hardAlpha"/>
<feMorphology radius="29.3254" operator="erode" in="SourceAlpha" result="effect1_dropShadow_477_7104"/>
<feOffset/>
<feGaussianBlur stdDeviation="70.8698"/>
<feComposite in2="hardAlpha" operator="out"/>
<feColorMatrix type="matrix" values="0 0 0 0 0.235294 0 0 0 0 1 0 0 0 0 0.666667 0 0 0 0.5 0"/>
<feBlend mode="normal" in2="BackgroundImageFix" result="effect1_dropShadow_477_7104"/>
<feBlend mode="normal" in="SourceGraphic" in2="effect1_dropShadow_477_7104" result="shape"/>
</filter>
<linearGradient id="paint0_linear_477_7104" x1="240.311" y1="112.414" x2="240.311" y2="337.873" gradientUnits="userSpaceOnUse">
<stop offset="0.529316" stop-color="#3CFFAA"/>
<stop offset="0.920818" stop-color="#B6FFDF"/>
</linearGradient>
</defs>
</svg>
