<svg width="40" height="40" viewBox="0 0 40 40" fill="none" xmlns="http://www.w3.org/2000/svg">
<rect width="40" height="40" rx="8" fill="#21242C"/>
<path d="M20 11C15.032 11 11 15.032 11 20C11 24.968 15.032 29 20 29C24.968 29 29 24.968 29 20C29 15.032 24.968 11 20 11ZM24.176 17.12C24.041 18.542 23.456 21.998 23.159 23.591C23.033 24.266 22.781 24.491 22.547 24.518C22.025 24.563 21.629 24.176 21.125 23.843C20.333 23.321 19.883 22.997 19.118 22.493C18.227 21.908 18.803 21.584 19.316 21.062C19.451 20.927 21.755 18.83 21.8 18.641C21.8063 18.6124 21.8054 18.5827 21.7976 18.5544C21.7897 18.5262 21.7751 18.5003 21.755 18.479C21.701 18.434 21.629 18.452 21.566 18.461C21.485 18.479 20.225 19.316 17.768 20.972C17.408 21.215 17.084 21.341 16.796 21.332C16.472 21.323 15.86 21.152 15.401 20.999C14.834 20.819 14.393 20.72 14.429 20.405C14.447 20.243 14.672 20.081 15.095 19.91C17.723 18.767 19.469 18.011 20.342 17.651C22.844 16.607 23.357 16.427 23.699 16.427C23.771 16.427 23.942 16.445 24.05 16.535C24.14 16.607 24.167 16.706 24.176 16.778C24.167 16.832 24.185 16.994 24.176 17.12Z" fill="#989EA9"/>
</svg>
